<svg width="201" height="194" viewBox="0 0 201 194" fill="none" xmlns="http://www.w3.org/2000/svg">
<path d="M160.402 131.842C147.929 154.743 123.425 170.293 95.004 169.626C59.2541 168.797 29.1109 141.355 24.9677 105.842C20.0282 63.5382 52.0438 26.7229 93.8095 24.9795C120.251 23.8711 143.969 37.1078 157.453 57.7808C161.177 63.4844 168.818 65.0664 174.467 61.2675C179.945 57.5763 181.549 50.1616 177.943 44.6194C159.326 15.9721 126.008 -2.04278 89.139 0.862847C38.2045 4.88767 -1.17212 48.655 0.151554 99.7402C1.55056 153.871 46.9751 196.164 100.869 193.915C136.113 192.44 166.138 172.273 181.839 143.389C185.003 137.578 182.775 130.292 176.996 127.064C171.099 123.76 163.641 125.902 160.402 131.842Z" fill="#CD5390"/>
<path d="M200.063 131.132C181.144 108.565 160.568 104.777 138.346 119.768C160.568 104.777 162.226 85.9874 143.296 63.4204C162.215 85.9874 181.005 87.6447 199.644 68.3707C181.005 87.6447 181.144 108.565 200.063 131.132Z" fill="#CD5390"/>
</svg>
