<svg width="256" height="60" viewBox="0 0 256 60" fill="none" xmlns="http://www.w3.org/2000/svg">
<path d="M45.9394 37.6282C42.3645 44.1919 35.3413 48.6489 27.1954 48.4576C16.9489 48.2201 8.30946 40.3549 7.12196 30.1763C5.70621 18.0514 14.8824 7.49962 26.853 6.99995C34.4314 6.68225 41.2295 10.4761 45.0942 16.4013C46.1614 18.036 48.3514 18.4894 49.9707 17.4006C51.5407 16.3426 52.0003 14.2175 50.967 12.629C45.6309 4.41829 36.0816 -0.74503 25.5144 0.087763C10.9158 1.24134 -0.370093 13.7857 0.0092901 28.4274C0.410265 43.942 13.4296 56.0638 28.8764 55.4191C38.9778 54.9966 47.5834 49.2164 52.0835 40.9378C52.9904 39.2722 52.3519 37.1841 50.6955 36.2587C49.0053 35.3118 46.8678 35.9256 45.9394 37.6282Z" fill="#CD5390"/>
<path d="M57.3055 37.4247C51.8831 30.9567 45.9857 29.8709 39.6163 34.1675C45.9857 29.8709 46.4607 24.4855 41.0352 18.0175C46.4576 24.4855 51.843 24.9605 57.1852 19.4363C51.843 24.9605 51.8831 30.9567 57.3055 37.4247Z" fill="#CD5390"/>
<path d="M103.05 35.4C103.517 34.6333 104.167 34.25 105 34.25C105.367 34.25 105.75 34.3667 106.15 34.6C106.683 34.9 107.017 35.35 107.15 35.95C107.317 36.55 107.25 37.1167 106.95 37.65C106.117 39.0833 105.1 40.3833 103.9 41.55C102.733 42.7167 101.45 43.7 100.05 44.5C98.65 45.3 97.15 45.9167 95.55 46.35C93.9833 46.7833 92.3667 47 90.7 47C88.1 47 85.65 46.5167 83.35 45.55C81.0833 44.55 79.1 43.2 77.4 41.5C75.7 39.8 74.35 37.8167 73.35 35.55C72.3833 33.25 71.9 30.8 71.9 28.2C71.9 25.6 72.3833 23.1667 73.35 20.9C74.35 18.6 75.7 16.6 77.4 14.9C79.1 13.2 81.0833 11.8667 83.35 10.9C85.65 9.9 88.1 9.4 90.7 9.4C92.3667 9.4 93.9833 9.61667 95.55 10.05C97.15 10.4833 98.65 11.1 100.05 11.9C101.45 12.7 102.733 13.6833 103.9 14.85C105.1 15.9833 106.117 17.2667 106.95 18.7C107.283 19.2667 107.367 19.8333 107.2 20.4C107.067 20.9 106.8 21.3167 106.4 21.65C106 21.95 105.533 22.1 105 22.1C104.167 22.1 103.517 21.7333 103.05 21C102.417 19.9 101.65 18.9167 100.75 18.05C99.8833 17.15 98.9167 16.4 97.85 15.8C96.7833 15.2 95.6333 14.7333 94.4 14.4C93.2 14.0667 91.9667 13.9 90.7 13.9C88.7333 13.9 86.8833 14.2833 85.15 15.05C83.4167 15.7833 81.9 16.8 80.6 18.1C79.3 19.4 78.2667 20.9167 77.5 22.65C76.7667 24.3833 76.4 26.2333 76.4 28.2C76.4 30.1667 76.7667 32.0167 77.5 33.75C78.2667 35.4833 79.3 37 80.6 38.3C81.9 39.6 83.4167 40.6333 85.15 41.4C86.8833 42.1333 88.7333 42.5 90.7 42.5C91.9667 42.5 93.2 42.3333 94.4 42C95.6333 41.6667 96.7833 41.2 97.85 40.6C98.9167 40 99.8833 39.2667 100.75 38.4C101.65 37.5 102.417 36.5 103.05 35.4ZM130.959 43.75C129.759 44.8167 128.409 45.6333 126.909 46.2C125.443 46.7333 123.909 47 122.309 47C120.509 47 118.809 46.6667 117.209 46C115.609 45.3 114.209 44.35 113.009 43.15C111.809 41.95 110.859 40.55 110.159 38.95C109.493 37.35 109.159 35.65 109.159 33.85C109.159 32.0167 109.493 30.3 110.159 28.7C110.859 27.1 111.809 25.7167 113.009 24.55C114.209 23.35 115.609 22.4 117.209 21.7C118.809 21 120.509 20.65 122.309 20.65C124.143 20.65 125.859 21 127.459 21.7C129.059 22.4 130.443 23.35 131.609 24.55C132.809 25.7167 133.743 27.1 134.409 28.7C135.109 30.3 135.459 32.0167 135.459 33.85V44.75C135.459 45.3833 135.243 45.9167 134.809 46.35C134.376 46.7833 133.843 47 133.209 47C132.576 47 132.043 46.7833 131.609 46.35C131.176 45.9167 130.959 45.3833 130.959 44.75V43.75ZM122.309 25.2C121.109 25.2 119.976 25.4333 118.909 25.9C117.876 26.3333 116.959 26.95 116.159 27.75C115.393 28.5167 114.776 29.4333 114.309 30.5C113.876 31.5333 113.659 32.65 113.659 33.85C113.659 35.05 113.876 36.1833 114.309 37.25C114.776 38.2833 115.393 39.2 116.159 40C116.959 40.7667 117.876 41.3833 118.909 41.85C119.976 42.2833 121.109 42.5 122.309 42.5C123.509 42.5 124.626 42.2833 125.659 41.85C126.726 41.3833 127.643 40.7667 128.409 40C129.209 39.2 129.826 38.2833 130.259 37.25C130.726 36.1833 130.959 35.05 130.959 33.85C130.959 32.65 130.726 31.5333 130.259 30.5C129.826 29.4333 129.209 28.5167 128.409 27.75C127.643 26.95 126.726 26.3333 125.659 25.9C124.626 25.4333 123.509 25.2 122.309 25.2ZM143.962 44.75C143.962 45.3833 143.745 45.9167 143.312 46.35C142.879 46.7833 142.345 47 141.712 47C141.079 47 140.545 46.7833 140.112 46.35C139.679 45.9167 139.462 45.3833 139.462 44.75V11.65C139.462 11.0167 139.679 10.4833 140.112 10.05C140.545 9.61667 141.079 9.4 141.712 9.4C142.345 9.4 142.879 9.61667 143.312 10.05C143.745 10.4833 143.962 11.0167 143.962 11.65V44.75ZM164.443 23.6C165.143 22.7667 166.06 22.0833 167.193 21.55C168.326 20.9833 169.776 20.7 171.543 20.7C172.743 20.6333 173.91 20.8167 175.043 21.25C176.176 21.65 177.176 22.2833 178.043 23.15C178.743 23.85 179.276 24.6167 179.643 25.45C180.01 26.2833 180.276 27.1 180.443 27.9C180.61 28.6667 180.693 29.3667 180.693 30C180.726 30.6 180.743 31.0167 180.743 31.25V44.75C180.743 45.3833 180.51 45.9167 180.043 46.35C179.61 46.7833 179.093 47 178.493 47C177.86 47 177.31 46.7833 176.843 46.35C176.41 45.9167 176.193 45.3833 176.193 44.75C176.193 42.1833 176.193 39.9 176.193 37.9C176.193 37.0333 176.193 36.2 176.193 35.4C176.193 34.5667 176.21 33.8167 176.243 33.15C176.243 32.3833 176.243 31.6667 176.243 31C176.276 30.4333 176.26 29.8667 176.193 29.3C176.126 28.8333 175.993 28.3333 175.793 27.8C175.626 27.2333 175.326 26.7333 174.893 26.3C173.893 25.4667 172.776 25.1 171.543 25.2C170.543 25.2 169.726 25.3667 169.093 25.7C168.493 26.0333 168.01 26.45 167.643 26.95C167.31 27.4167 167.076 27.9333 166.943 28.5C166.81 29.0333 166.726 29.5167 166.693 29.95C166.693 30.0167 166.693 30.2833 166.693 30.75C166.726 31.2167 166.743 31.8 166.743 32.5C166.743 33.2 166.726 34 166.693 34.9C166.693 35.7667 166.693 36.65 166.693 37.55C166.693 39.6833 166.693 42.0833 166.693 44.75C166.693 45.3833 166.476 45.9167 166.043 46.35C165.61 46.7833 165.076 47 164.443 47C163.81 47 163.276 46.7833 162.843 46.35C162.41 45.9167 162.193 45.3833 162.193 44.75C162.193 42.1167 162.193 39.7333 162.193 37.6V29.75C162.193 28.45 161.743 27.3 160.843 26.3C160.376 25.9 159.843 25.6 159.243 25.4C158.676 25.2 158.093 25.1333 157.493 25.2C156.193 25.2 155.21 25.4833 154.543 26.05C153.876 26.5833 153.41 27.2 153.143 27.9C152.876 28.5667 152.726 29.2167 152.693 29.85C152.693 30.45 152.693 30.8167 152.693 30.95C152.693 30.95 152.693 31.15 152.693 31.55C152.693 31.95 152.693 32.4833 152.693 33.15C152.693 33.7833 152.693 34.5167 152.693 35.35C152.726 36.1833 152.743 37.0333 152.743 37.9C152.743 39.9 152.743 42.1833 152.743 44.75C152.743 45.3833 152.51 45.9167 152.043 46.35C151.61 46.7833 151.076 47 150.443 47C149.843 47 149.31 46.7833 148.843 46.35C148.41 45.9167 148.193 45.3833 148.193 44.75V31.25C148.193 31.0167 148.193 30.6 148.193 30C148.226 29.4 148.31 28.7167 148.443 27.95C148.61 27.15 148.876 26.3333 149.243 25.5C149.61 24.6333 150.143 23.85 150.843 23.15C151.543 22.45 152.426 21.8667 153.493 21.4C154.593 20.9333 155.926 20.7 157.493 20.7C158.693 20.6333 159.86 20.8167 160.993 21.25C162.16 21.65 163.176 22.2667 164.043 23.1C164.176 23.2333 164.31 23.4 164.443 23.6ZM196.821 47C195.021 47 193.321 46.6667 191.721 46C190.121 45.3 188.721 44.35 187.521 43.15C186.321 41.95 185.371 40.55 184.671 38.95C184.004 37.35 183.671 35.65 183.671 33.85C183.671 32.0167 184.004 30.3 184.671 28.7C185.371 27.1 186.321 25.7167 187.521 24.55C188.721 23.35 190.121 22.4 191.721 21.7C193.321 21 195.021 20.65 196.821 20.65C198.654 20.65 200.371 21 201.971 21.7C203.571 22.4 204.954 23.35 206.121 24.55C207.321 25.7167 208.271 27.1 208.971 28.7C209.671 30.3 210.021 32.0167 210.021 33.85C210.021 35.65 209.671 37.35 208.971 38.95C208.271 40.55 207.321 41.95 206.121 43.15C204.954 44.35 203.571 45.3 201.971 46C200.371 46.6667 198.654 47 196.821 47ZM196.821 42.5C198.021 42.5 199.138 42.2833 200.171 41.85C201.238 41.3833 202.154 40.7667 202.921 40C203.721 39.2 204.338 38.2833 204.771 37.25C205.238 36.1833 205.471 35.05 205.471 33.85C205.471 32.65 205.238 31.5333 204.771 30.5C204.338 29.4333 203.721 28.5167 202.921 27.75C202.154 26.95 201.238 26.3333 200.171 25.9C199.138 25.4333 198.021 25.2 196.821 25.2C195.621 25.2 194.488 25.4333 193.421 25.9C192.388 26.3333 191.471 26.95 190.671 27.75C189.904 28.5167 189.288 29.4333 188.821 30.5C188.388 31.5333 188.171 32.65 188.171 33.85C188.171 35.05 188.388 36.1833 188.821 37.25C189.288 38.2833 189.904 39.2 190.671 40C191.471 40.7667 192.388 41.3833 193.421 41.85C194.488 42.2833 195.621 42.5 196.821 42.5ZM225.438 20.95C226.071 20.95 226.605 21.1667 227.038 21.6C227.471 22.0333 227.688 22.5667 227.688 23.2C227.688 23.8333 227.471 24.3667 227.038 24.8C226.605 25.2333 226.071 25.45 225.438 25.45H221.338C220.271 25.45 219.371 25.8167 218.638 26.55C217.905 27.25 217.538 28.1333 217.538 29.2V44.75C217.538 45.3833 217.321 45.9167 216.888 46.35C216.455 46.7833 215.921 47 215.288 47C214.655 47 214.121 46.7833 213.688 46.35C213.255 45.9167 213.038 45.3833 213.038 44.75V29.2C213.038 28.0333 213.255 26.95 213.688 25.95C214.121 24.95 214.705 24.0833 215.438 23.35C216.205 22.5833 217.088 22 218.088 21.6C219.121 21.1667 220.205 20.95 221.338 20.95H225.438ZM249.758 43.75C248.558 44.8167 247.208 45.6333 245.708 46.2C244.242 46.7333 242.708 47 241.108 47C239.308 47 237.608 46.6667 236.008 46C234.408 45.3 233.008 44.35 231.808 43.15C230.608 41.95 229.658 40.55 228.958 38.95C228.292 37.35 227.958 35.65 227.958 33.85C227.958 32.0167 228.292 30.3 228.958 28.7C229.658 27.1 230.608 25.7167 231.808 24.55C233.008 23.35 234.408 22.4 236.008 21.7C237.608 21 239.308 20.65 241.108 20.65C242.942 20.65 244.658 21 246.258 21.7C247.858 22.4 249.242 23.35 250.408 24.55C251.608 25.7167 252.542 27.1 253.208 28.7C253.908 30.3 254.258 32.0167 254.258 33.85V44.75C254.258 45.3833 254.042 45.9167 253.608 46.35C253.175 46.7833 252.642 47 252.008 47C251.375 47 250.842 46.7833 250.408 46.35C249.975 45.9167 249.758 45.3833 249.758 44.75V43.75ZM241.108 25.2C239.908 25.2 238.775 25.4333 237.708 25.9C236.675 26.3333 235.758 26.95 234.958 27.75C234.192 28.5167 233.575 29.4333 233.108 30.5C232.675 31.5333 232.458 32.65 232.458 33.85C232.458 35.05 232.675 36.1833 233.108 37.25C233.575 38.2833 234.192 39.2 234.958 40C235.758 40.7667 236.675 41.3833 237.708 41.85C238.775 42.2833 239.908 42.5 241.108 42.5C242.308 42.5 243.425 42.2833 244.458 41.85C245.525 41.3833 246.442 40.7667 247.208 40C248.008 39.2 248.625 38.2833 249.058 37.25C249.525 36.1833 249.758 35.05 249.758 33.85C249.758 32.65 249.525 31.5333 249.058 30.5C248.625 29.4333 248.008 28.5167 247.208 27.75C246.442 26.95 245.525 26.3333 244.458 25.9C243.425 25.4333 242.308 25.2 241.108 25.2Z" fill="#CD5390"/>
</svg>
