<svg width="351" height="73" viewBox="0 0 351 73" fill="none" xmlns="http://www.w3.org/2000/svg">
<path d="M60.536 50.728C61.432 49.256 62.68 48.52 64.28 48.52C64.984 48.52 65.72 48.744 66.488 49.192C67.512 49.768 68.152 50.632 68.408 51.784C68.728 52.936 68.6 54.024 68.024 55.048C66.424 57.8 64.472 60.296 62.168 62.536C59.928 64.776 57.464 66.664 54.776 68.2C52.088 69.736 49.208 70.92 46.136 71.752C43.128 72.584 40.024 73 36.824 73C31.832 73 27.128 72.072 22.712 70.216C18.36 68.296 14.552 65.704 11.288 62.44C8.024 59.176 5.432 55.368 3.512 51.016C1.656 46.6 0.728 41.896 0.728 36.904C0.728 31.912 1.656 27.24 3.512 22.888C5.432 18.472 8.024 14.632 11.288 11.368C14.552 8.104 18.36 5.544 22.712 3.68799C27.128 1.768 31.832 0.807997 36.824 0.807997C40.024 0.807997 43.128 1.224 46.136 2.056C49.208 2.888 52.088 4.072 54.776 5.608C57.464 7.144 59.928 9.032 62.168 11.272C64.472 13.448 66.424 15.912 68.024 18.664C68.664 19.752 68.824 20.84 68.504 21.928C68.248 22.888 67.736 23.688 66.968 24.328C66.2 24.904 65.304 25.192 64.28 25.192C62.68 25.192 61.432 24.488 60.536 23.08C59.32 20.968 57.848 19.08 56.12 17.416C54.456 15.688 52.6 14.248 50.552 13.096C48.504 11.944 46.296 11.048 43.928 10.408C41.624 9.768 39.256 9.44799 36.824 9.44799C33.048 9.44799 29.496 10.184 26.168 11.656C22.84 13.064 19.928 15.016 17.432 17.512C14.936 20.008 12.952 22.92 11.48 26.248C10.072 29.576 9.368 33.128 9.368 36.904C9.368 40.68 10.072 44.232 11.48 47.56C12.952 50.888 14.936 53.8 17.432 56.296C19.928 58.792 22.84 60.776 26.168 62.248C29.496 63.656 33.048 64.36 36.824 64.36C39.256 64.36 41.624 64.04 43.928 63.4C46.296 62.76 48.504 61.864 50.552 60.712C52.6 59.56 54.456 58.152 56.12 56.488C57.848 54.76 59.32 52.84 60.536 50.728ZM114.122 66.76C111.818 68.808 109.226 70.376 106.346 71.464C103.53 72.488 100.586 73 97.514 73C94.058 73 90.794 72.36 87.722 71.08C84.65 69.736 81.962 67.912 79.658 65.608C77.354 63.304 75.53 60.616 74.186 57.544C72.906 54.472 72.266 51.208 72.266 47.752C72.266 44.232 72.906 40.936 74.186 37.864C75.53 34.792 77.354 32.136 79.658 29.896C81.962 27.592 84.65 25.768 87.722 24.424C90.794 23.08 94.058 22.408 97.514 22.408C101.034 22.408 104.33 23.08 107.402 24.424C110.474 25.768 113.13 27.592 115.37 29.896C117.674 32.136 119.466 34.792 120.746 37.864C122.09 40.936 122.762 44.232 122.762 47.752V68.68C122.762 69.896 122.346 70.92 121.514 71.752C120.682 72.584 119.658 73 118.442 73C117.226 73 116.202 72.584 115.37 71.752C114.538 70.92 114.122 69.896 114.122 68.68V66.76ZM97.514 31.144C95.21 31.144 93.034 31.592 90.986 32.488C89.002 33.32 87.242 34.504 85.706 36.04C84.234 37.512 83.05 39.272 82.154 41.32C81.322 43.304 80.906 45.448 80.906 47.752C80.906 50.056 81.322 52.232 82.154 54.28C83.05 56.264 84.234 58.024 85.706 59.56C87.242 61.032 89.002 62.216 90.986 63.112C93.034 63.944 95.21 64.36 97.514 64.36C99.818 64.36 101.962 63.944 103.946 63.112C105.994 62.216 107.754 61.032 109.226 59.56C110.762 58.024 111.946 56.264 112.778 54.28C113.674 52.232 114.122 50.056 114.122 47.752C114.122 45.448 113.674 43.304 112.778 41.32C111.946 39.272 110.762 37.512 109.226 36.04C107.754 34.504 105.994 33.32 103.946 32.488C101.962 31.592 99.818 31.144 97.514 31.144ZM139.087 68.68C139.087 69.896 138.671 70.92 137.839 71.752C137.007 72.584 135.983 73 134.767 73C133.551 73 132.527 72.584 131.695 71.752C130.863 70.92 130.447 69.896 130.447 68.68V5.128C130.447 3.912 130.863 2.888 131.695 2.056C132.527 1.224 133.551 0.807997 134.767 0.807997C135.983 0.807997 137.007 1.224 137.839 2.056C138.671 2.888 139.087 3.912 139.087 5.128V68.68ZM178.411 28.072C179.755 26.472 181.515 25.16 183.691 24.136C185.867 23.048 188.651 22.504 192.042 22.504C194.347 22.376 196.587 22.728 198.763 23.56C200.939 24.328 202.859 25.544 204.523 27.208C205.867 28.552 206.891 30.024 207.595 31.624C208.299 33.224 208.811 34.792 209.131 36.328C209.451 37.8 209.611 39.144 209.611 40.36C209.675 41.512 209.707 42.312 209.707 42.76V68.68C209.707 69.896 209.259 70.92 208.363 71.752C207.531 72.584 206.539 73 205.387 73C204.171 73 203.115 72.584 202.219 71.752C201.387 70.92 200.971 69.896 200.971 68.68C200.971 63.752 200.971 59.368 200.971 55.528C200.971 53.864 200.971 52.264 200.971 50.728C200.971 49.128 201.003 47.688 201.067 46.408C201.067 44.936 201.067 43.56 201.067 42.28C201.131 41.192 201.099 40.104 200.971 39.016C200.843 38.12 200.587 37.16 200.203 36.136C199.883 35.048 199.307 34.088 198.475 33.256C196.555 31.656 194.411 30.952 192.042 31.144C190.123 31.144 188.555 31.464 187.339 32.104C186.187 32.744 185.259 33.544 184.555 34.504C183.915 35.4 183.467 36.392 183.211 37.48C182.955 38.504 182.795 39.432 182.731 40.264C182.731 40.392 182.731 40.904 182.731 41.8C182.795 42.696 182.827 43.816 182.827 45.16C182.827 46.504 182.795 48.04 182.731 49.768C182.731 51.432 182.731 53.128 182.731 54.856C182.731 58.952 182.731 63.56 182.731 68.68C182.731 69.896 182.315 70.92 181.483 71.752C180.651 72.584 179.627 73 178.411 73C177.195 73 176.171 72.584 175.339 71.752C174.507 70.92 174.091 69.896 174.091 68.68C174.091 63.624 174.091 59.048 174.091 54.952V39.88C174.091 37.384 173.227 35.176 171.499 33.256C170.603 32.488 169.579 31.912 168.427 31.528C167.339 31.144 166.219 31.016 165.067 31.144C162.571 31.144 160.683 31.688 159.403 32.776C158.123 33.8 157.227 34.984 156.715 36.328C156.203 37.608 155.915 38.856 155.851 40.072C155.851 41.224 155.851 41.928 155.851 42.184C155.851 42.184 155.851 42.568 155.851 43.336C155.851 44.104 155.851 45.128 155.851 46.408C155.851 47.624 155.851 49.032 155.851 50.632C155.915 52.232 155.947 53.864 155.947 55.528C155.947 59.368 155.947 63.752 155.947 68.68C155.947 69.896 155.499 70.92 154.603 71.752C153.771 72.584 152.747 73 151.531 73C150.379 73 149.355 72.584 148.459 71.752C147.627 70.92 147.211 69.896 147.211 68.68V42.76C147.211 42.312 147.211 41.512 147.211 40.36C147.275 39.208 147.435 37.896 147.691 36.424C148.011 34.888 148.523 33.32 149.227 31.72C149.931 30.056 150.955 28.552 152.299 27.208C153.643 25.864 155.339 24.744 157.387 23.848C159.499 22.952 162.059 22.504 165.067 22.504C167.371 22.376 169.611 22.728 171.786 23.56C174.027 24.328 175.979 25.512 177.643 27.112C177.899 27.368 178.155 27.688 178.411 28.072ZM240.577 73C237.121 73 233.857 72.36 230.785 71.08C227.713 69.736 225.025 67.912 222.721 65.608C220.417 63.304 218.593 60.616 217.249 57.544C215.969 54.472 215.329 51.208 215.329 47.752C215.329 44.232 215.969 40.936 217.249 37.864C218.593 34.792 220.417 32.136 222.721 29.896C225.025 27.592 227.713 25.768 230.785 24.424C233.857 23.08 237.121 22.408 240.577 22.408C244.097 22.408 247.393 23.08 250.465 24.424C253.537 25.768 256.193 27.592 258.433 29.896C260.737 32.136 262.561 34.792 263.905 37.864C265.249 40.936 265.921 44.232 265.921 47.752C265.921 51.208 265.249 54.472 263.905 57.544C262.561 60.616 260.737 63.304 258.433 65.608C256.193 67.912 253.537 69.736 250.465 71.08C247.393 72.36 244.097 73 240.577 73ZM240.577 64.36C242.881 64.36 245.025 63.944 247.009 63.112C249.057 62.216 250.817 61.032 252.289 59.56C253.825 58.024 255.009 56.264 255.841 54.28C256.737 52.232 257.185 50.056 257.185 47.752C257.185 45.448 256.737 43.304 255.841 41.32C255.009 39.272 253.825 37.512 252.289 36.04C250.817 34.504 249.057 33.32 247.009 32.488C245.025 31.592 242.881 31.144 240.577 31.144C238.273 31.144 236.097 31.592 234.049 32.488C232.065 33.32 230.305 34.504 228.769 36.04C227.297 37.512 226.113 39.272 225.217 41.32C224.385 43.304 223.969 45.448 223.969 47.752C223.969 50.056 224.385 52.232 225.217 54.28C226.113 56.264 227.297 58.024 228.769 59.56C230.305 61.032 232.065 62.216 234.049 63.112C236.097 63.944 238.273 64.36 240.577 64.36ZM295.521 22.984C296.737 22.984 297.761 23.4 298.593 24.232C299.425 25.064 299.841 26.088 299.841 27.304C299.841 28.52 299.425 29.544 298.593 30.376C297.761 31.208 296.737 31.624 295.521 31.624H287.649C285.601 31.624 283.873 32.328 282.465 33.736C281.057 35.08 280.353 36.776 280.353 38.824V68.68C280.353 69.896 279.937 70.92 279.105 71.752C278.273 72.584 277.249 73 276.033 73C274.817 73 273.793 72.584 272.961 71.752C272.129 70.92 271.713 69.896 271.713 68.68V38.824C271.713 36.584 272.129 34.504 272.961 32.584C273.793 30.664 274.913 29 276.321 27.592C277.793 26.12 279.489 25 281.409 24.232C283.393 23.4 285.473 22.984 287.649 22.984H295.521ZM342.216 66.76C339.912 68.808 337.32 70.376 334.44 71.464C331.624 72.488 328.68 73 325.608 73C322.152 73 318.888 72.36 315.816 71.08C312.744 69.736 310.056 67.912 307.752 65.608C305.448 63.304 303.624 60.616 302.28 57.544C301 54.472 300.36 51.208 300.36 47.752C300.36 44.232 301 40.936 302.28 37.864C303.624 34.792 305.448 32.136 307.752 29.896C310.056 27.592 312.744 25.768 315.816 24.424C318.888 23.08 322.152 22.408 325.608 22.408C329.128 22.408 332.424 23.08 335.496 24.424C338.568 25.768 341.224 27.592 343.464 29.896C345.768 32.136 347.56 34.792 348.84 37.864C350.184 40.936 350.856 44.232 350.856 47.752V68.68C350.856 69.896 350.44 70.92 349.608 71.752C348.776 72.584 347.752 73 346.536 73C345.32 73 344.296 72.584 343.464 71.752C342.632 70.92 342.216 69.896 342.216 68.68V66.76ZM325.608 31.144C323.304 31.144 321.128 31.592 319.08 32.488C317.096 33.32 315.336 34.504 313.8 36.04C312.328 37.512 311.144 39.272 310.248 41.32C309.416 43.304 309 45.448 309 47.752C309 50.056 309.416 52.232 310.248 54.28C311.144 56.264 312.328 58.024 313.8 59.56C315.336 61.032 317.096 62.216 319.08 63.112C321.128 63.944 323.304 64.36 325.608 64.36C327.912 64.36 330.056 63.944 332.04 63.112C334.088 62.216 335.848 61.032 337.32 59.56C338.856 58.024 340.04 56.264 340.872 54.28C341.768 52.232 342.216 50.056 342.216 47.752C342.216 45.448 341.768 43.304 340.872 41.32C340.04 39.272 338.856 37.512 337.32 36.04C335.848 34.504 334.088 33.32 332.04 32.488C330.056 31.592 327.912 31.144 325.608 31.144Z" fill="#CD5390"/>
</svg>
