<svg width="50" height="50" viewBox="0 0 50 50" fill="none" xmlns="http://www.w3.org/2000/svg">
<circle cx="25" cy="25" r="25" fill="#CD5390"/>
<path d="M30 15H20C17.2386 15 15 17.2386 15 20V30C15 32.7614 17.2386 35 20 35H30C32.7614 35 35 32.7614 35 30V20C35 17.2386 32.7614 15 30 15Z" fill="white"/>
<path d="M28.9997 24.3703C29.1231 25.2025 28.981 26.0525 28.5935 26.7993C28.206 27.5461 27.5929 28.1517 26.8413 28.53C26.0898 28.9082 25.2382 29.0399 24.4075 28.9062C23.5768 28.7726 22.8095 28.3804 22.2145 27.7855C21.6196 27.1905 21.2274 26.4232 21.0938 25.5925C20.9601 24.7619 21.0918 23.9102 21.47 23.1587C21.8483 22.4072 22.4539 21.794 23.2007 21.4065C23.9475 21.019 24.7975 20.8769 25.6297 21.0003C26.4786 21.1262 27.2646 21.5218 27.8714 22.1286C28.4782 22.7355 28.8738 23.5214 28.9997 24.3703Z" fill="white"/>
<path d="M30 15H20C17.2386 15 15 17.2386 15 20V30C15 32.7614 17.2386 35 20 35H30C32.7614 35 35 32.7614 35 30V20C35 17.2386 32.7614 15 30 15Z" stroke="#CD5390" stroke-width="2" stroke-linecap="round" stroke-linejoin="round"/>
<path d="M28.9997 24.3703C29.1231 25.2025 28.981 26.0525 28.5935 26.7993C28.206 27.5461 27.5929 28.1517 26.8413 28.53C26.0898 28.9082 25.2382 29.0399 24.4075 28.9062C23.5768 28.7726 22.8095 28.3804 22.2145 27.7855C21.6196 27.1905 21.2274 26.4232 21.0938 25.5925C20.9601 24.7619 21.0918 23.9102 21.47 23.1587C21.8483 22.4072 22.4539 21.794 23.2007 21.4065C23.9475 21.019 24.7975 20.8769 25.6297 21.0003C26.4786 21.1262 27.2646 21.5218 27.8714 22.1286C28.4782 22.7355 28.8738 23.5214 28.9997 24.3703Z" stroke="#CD5390" stroke-width="2" stroke-linecap="round" stroke-linejoin="round"/>
</svg>
