<svg width="261" height="60" viewBox="0 0 261 60" fill="none" xmlns="http://www.w3.org/2000/svg">
<path d="M44.2249 37.6282C40.7834 44.1919 34.0223 48.6489 26.1804 48.4576C16.3164 48.2201 7.99934 40.3549 6.85616 30.1763C5.49325 18.0514 14.3269 7.49962 25.8508 6.99995C33.1464 6.68225 39.6907 10.4761 43.4113 16.4013C44.4387 18.036 46.5469 18.4894 48.1057 17.4006C49.6171 16.3426 50.0596 14.2175 49.0648 12.629C43.9279 4.41829 34.735 -0.74503 24.5621 0.087763C10.5084 1.24134 -0.356281 13.7857 0.00894338 28.4274C0.394953 43.942 12.9284 56.0638 27.7987 55.4191C37.5231 54.9966 45.8075 49.2164 50.1397 40.9378C51.0127 39.2722 50.398 37.1841 48.8035 36.2587C47.1764 35.3118 45.1186 35.9256 44.2249 37.6282Z" fill="#CD5390"/>
<path d="M55.1676 37.4247C49.9476 30.9567 44.2703 29.871 38.1387 34.1676C44.2703 29.871 44.7276 24.4856 39.5045 18.0176C44.7246 24.4856 49.909 24.9606 55.0518 19.4364C49.909 24.9606 49.9476 30.9567 55.1676 37.4247Z" fill="#CD5390"/>
<path d="M107.304 35.4C107.771 34.6333 108.421 34.25 109.254 34.25C109.621 34.25 110.004 34.3667 110.404 34.6C110.937 34.9 111.271 35.35 111.404 35.95C111.571 36.55 111.504 37.1167 111.204 37.65C110.371 39.0833 109.354 40.3833 108.154 41.55C106.987 42.7167 105.704 43.7 104.304 44.5C102.904 45.3 101.404 45.9167 99.8039 46.35C98.2372 46.7833 96.6206 47 94.9539 47C92.3539 47 89.9039 46.5167 87.6039 45.55C85.3372 44.55 83.3539 43.2 81.6539 41.5C79.9539 39.8 78.6039 37.8167 77.6039 35.55C76.6372 33.25 76.1539 30.8 76.1539 28.2C76.1539 25.6 76.6372 23.1667 77.6039 20.9C78.6039 18.6 79.9539 16.6 81.6539 14.9C83.3539 13.2 85.3372 11.8667 87.6039 10.9C89.9039 9.9 92.3539 9.4 94.9539 9.4C96.6206 9.4 98.2372 9.61667 99.8039 10.05C101.404 10.4833 102.904 11.1 104.304 11.9C105.704 12.7 106.987 13.6833 108.154 14.85C109.354 15.9833 110.371 17.2667 111.204 18.7C111.537 19.2667 111.621 19.8333 111.454 20.4C111.321 20.9 111.054 21.3167 110.654 21.65C110.254 21.95 109.787 22.1 109.254 22.1C108.421 22.1 107.771 21.7333 107.304 21C106.671 19.9 105.904 18.9167 105.004 18.05C104.137 17.15 103.171 16.4 102.104 15.8C101.037 15.2 99.8872 14.7333 98.6539 14.4C97.4539 14.0667 96.2206 13.9 94.9539 13.9C92.9872 13.9 91.1372 14.2833 89.4039 15.05C87.6706 15.7833 86.1539 16.8 84.8539 18.1C83.5539 19.4 82.5206 20.9167 81.7539 22.65C81.0206 24.3833 80.6539 26.2333 80.6539 28.2C80.6539 30.1667 81.0206 32.0167 81.7539 33.75C82.5206 35.4833 83.5539 37 84.8539 38.3C86.1539 39.6 87.6706 40.6333 89.4039 41.4C91.1372 42.1333 92.9872 42.5 94.9539 42.5C96.2206 42.5 97.4539 42.3333 98.6539 42C99.8872 41.6667 101.037 41.2 102.104 40.6C103.171 40 104.137 39.2667 105.004 38.4C105.904 37.5 106.671 36.5 107.304 35.4ZM135.213 43.75C134.013 44.8167 132.663 45.6333 131.163 46.2C129.697 46.7333 128.163 47 126.563 47C124.763 47 123.063 46.6667 121.463 46C119.863 45.3 118.463 44.35 117.263 43.15C116.063 41.95 115.113 40.55 114.413 38.95C113.747 37.35 113.413 35.65 113.413 33.85C113.413 32.0167 113.747 30.3 114.413 28.7C115.113 27.1 116.063 25.7167 117.263 24.55C118.463 23.35 119.863 22.4 121.463 21.7C123.063 21 124.763 20.65 126.563 20.65C128.397 20.65 130.113 21 131.713 21.7C133.313 22.4 134.697 23.35 135.863 24.55C137.063 25.7167 137.997 27.1 138.663 28.7C139.363 30.3 139.713 32.0167 139.713 33.85V44.75C139.713 45.3833 139.497 45.9167 139.063 46.35C138.63 46.7833 138.097 47 137.463 47C136.83 47 136.297 46.7833 135.863 46.35C135.43 45.9167 135.213 45.3833 135.213 44.75V43.75ZM126.563 25.2C125.363 25.2 124.23 25.4333 123.163 25.9C122.13 26.3333 121.213 26.95 120.413 27.75C119.647 28.5167 119.03 29.4333 118.563 30.5C118.13 31.5333 117.913 32.65 117.913 33.85C117.913 35.05 118.13 36.1833 118.563 37.25C119.03 38.2833 119.647 39.2 120.413 40C121.213 40.7667 122.13 41.3833 123.163 41.85C124.23 42.2833 125.363 42.5 126.563 42.5C127.763 42.5 128.88 42.2833 129.913 41.85C130.98 41.3833 131.897 40.7667 132.663 40C133.463 39.2 134.08 38.2833 134.513 37.25C134.98 36.1833 135.213 35.05 135.213 33.85C135.213 32.65 134.98 31.5333 134.513 30.5C134.08 29.4333 133.463 28.5167 132.663 27.75C131.897 26.95 130.98 26.3333 129.913 25.9C128.88 25.4333 127.763 25.2 126.563 25.2ZM148.216 44.75C148.216 45.3833 147.999 45.9167 147.566 46.35C147.133 46.7833 146.599 47 145.966 47C145.333 47 144.799 46.7833 144.366 46.35C143.933 45.9167 143.716 45.3833 143.716 44.75V11.65C143.716 11.0167 143.933 10.4833 144.366 10.05C144.799 9.61667 145.333 9.4 145.966 9.4C146.599 9.4 147.133 9.61667 147.566 10.05C147.999 10.4833 148.216 11.0167 148.216 11.65V44.75ZM168.697 23.6C169.397 22.7667 170.314 22.0833 171.447 21.55C172.58 20.9833 174.03 20.7 175.797 20.7C176.997 20.6333 178.164 20.8167 179.297 21.25C180.43 21.65 181.43 22.2833 182.297 23.15C182.997 23.85 183.53 24.6167 183.897 25.45C184.264 26.2833 184.53 27.1 184.697 27.9C184.864 28.6667 184.947 29.3667 184.947 30C184.98 30.6 184.997 31.0167 184.997 31.25V44.75C184.997 45.3833 184.764 45.9167 184.297 46.35C183.864 46.7833 183.347 47 182.747 47C182.114 47 181.564 46.7833 181.097 46.35C180.664 45.9167 180.447 45.3833 180.447 44.75C180.447 42.1833 180.447 39.9 180.447 37.9C180.447 37.0333 180.447 36.2 180.447 35.4C180.447 34.5667 180.464 33.8167 180.497 33.15C180.497 32.3833 180.497 31.6667 180.497 31C180.53 30.4333 180.514 29.8667 180.447 29.3C180.38 28.8333 180.247 28.3333 180.047 27.8C179.88 27.2333 179.58 26.7333 179.147 26.3C178.147 25.4667 177.03 25.1 175.797 25.2C174.797 25.2 173.98 25.3667 173.347 25.7C172.747 26.0333 172.264 26.45 171.897 26.95C171.564 27.4167 171.33 27.9333 171.197 28.5C171.064 29.0333 170.98 29.5167 170.947 29.95C170.947 30.0167 170.947 30.2833 170.947 30.75C170.98 31.2167 170.997 31.8 170.997 32.5C170.997 33.2 170.98 34 170.947 34.9C170.947 35.7667 170.947 36.65 170.947 37.55C170.947 39.6833 170.947 42.0833 170.947 44.75C170.947 45.3833 170.73 45.9167 170.297 46.35C169.864 46.7833 169.33 47 168.697 47C168.064 47 167.53 46.7833 167.097 46.35C166.664 45.9167 166.447 45.3833 166.447 44.75C166.447 42.1167 166.447 39.7333 166.447 37.6V29.75C166.447 28.45 165.997 27.3 165.097 26.3C164.63 25.9 164.097 25.6 163.497 25.4C162.93 25.2 162.347 25.1333 161.747 25.2C160.447 25.2 159.464 25.4833 158.797 26.05C158.13 26.5833 157.664 27.2 157.397 27.9C157.13 28.5667 156.98 29.2167 156.947 29.85C156.947 30.45 156.947 30.8167 156.947 30.95C156.947 30.95 156.947 31.15 156.947 31.55C156.947 31.95 156.947 32.4833 156.947 33.15C156.947 33.7833 156.947 34.5167 156.947 35.35C156.98 36.1833 156.997 37.0333 156.997 37.9C156.997 39.9 156.997 42.1833 156.997 44.75C156.997 45.3833 156.764 45.9167 156.297 46.35C155.864 46.7833 155.33 47 154.697 47C154.097 47 153.564 46.7833 153.097 46.35C152.664 45.9167 152.447 45.3833 152.447 44.75V31.25C152.447 31.0167 152.447 30.6 152.447 30C152.48 29.4 152.564 28.7167 152.697 27.95C152.864 27.15 153.13 26.3333 153.497 25.5C153.864 24.6333 154.397 23.85 155.097 23.15C155.797 22.45 156.68 21.8667 157.747 21.4C158.847 20.9333 160.18 20.7 161.747 20.7C162.947 20.6333 164.114 20.8167 165.247 21.25C166.414 21.65 167.43 22.2667 168.297 23.1C168.43 23.2333 168.564 23.4 168.697 23.6ZM201.075 47C199.275 47 197.575 46.6667 195.975 46C194.375 45.3 192.975 44.35 191.775 43.15C190.575 41.95 189.625 40.55 188.925 38.95C188.258 37.35 187.925 35.65 187.925 33.85C187.925 32.0167 188.258 30.3 188.925 28.7C189.625 27.1 190.575 25.7167 191.775 24.55C192.975 23.35 194.375 22.4 195.975 21.7C197.575 21 199.275 20.65 201.075 20.65C202.908 20.65 204.625 21 206.225 21.7C207.825 22.4 209.208 23.35 210.375 24.55C211.575 25.7167 212.525 27.1 213.225 28.7C213.925 30.3 214.275 32.0167 214.275 33.85C214.275 35.65 213.925 37.35 213.225 38.95C212.525 40.55 211.575 41.95 210.375 43.15C209.208 44.35 207.825 45.3 206.225 46C204.625 46.6667 202.908 47 201.075 47ZM201.075 42.5C202.275 42.5 203.392 42.2833 204.425 41.85C205.492 41.3833 206.408 40.7667 207.175 40C207.975 39.2 208.592 38.2833 209.025 37.25C209.492 36.1833 209.725 35.05 209.725 33.85C209.725 32.65 209.492 31.5333 209.025 30.5C208.592 29.4333 207.975 28.5167 207.175 27.75C206.408 26.95 205.492 26.3333 204.425 25.9C203.392 25.4333 202.275 25.2 201.075 25.2C199.875 25.2 198.742 25.4333 197.675 25.9C196.642 26.3333 195.725 26.95 194.925 27.75C194.158 28.5167 193.542 29.4333 193.075 30.5C192.642 31.5333 192.425 32.65 192.425 33.85C192.425 35.05 192.642 36.1833 193.075 37.25C193.542 38.2833 194.158 39.2 194.925 40C195.725 40.7667 196.642 41.3833 197.675 41.85C198.742 42.2833 199.875 42.5 201.075 42.5ZM229.692 20.95C230.325 20.95 230.858 21.1667 231.292 21.6C231.725 22.0333 231.942 22.5667 231.942 23.2C231.942 23.8333 231.725 24.3667 231.292 24.8C230.858 25.2333 230.325 25.45 229.692 25.45H225.592C224.525 25.45 223.625 25.8167 222.892 26.55C222.158 27.25 221.792 28.1333 221.792 29.2V44.75C221.792 45.3833 221.575 45.9167 221.142 46.35C220.708 46.7833 220.175 47 219.542 47C218.908 47 218.375 46.7833 217.942 46.35C217.508 45.9167 217.292 45.3833 217.292 44.75V29.2C217.292 28.0333 217.508 26.95 217.942 25.95C218.375 24.95 218.958 24.0833 219.692 23.35C220.458 22.5833 221.342 22 222.342 21.6C223.375 21.1667 224.458 20.95 225.592 20.95H229.692ZM254.012 43.75C252.812 44.8167 251.462 45.6333 249.962 46.2C248.495 46.7333 246.962 47 245.362 47C243.562 47 241.862 46.6667 240.262 46C238.662 45.3 237.262 44.35 236.062 43.15C234.862 41.95 233.912 40.55 233.212 38.95C232.545 37.35 232.212 35.65 232.212 33.85C232.212 32.0167 232.545 30.3 233.212 28.7C233.912 27.1 234.862 25.7167 236.062 24.55C237.262 23.35 238.662 22.4 240.262 21.7C241.862 21 243.562 20.65 245.362 20.65C247.195 20.65 248.912 21 250.512 21.7C252.112 22.4 253.495 23.35 254.662 24.55C255.862 25.7167 256.795 27.1 257.462 28.7C258.162 30.3 258.512 32.0167 258.512 33.85V44.75C258.512 45.3833 258.295 45.9167 257.862 46.35C257.429 46.7833 256.895 47 256.262 47C255.629 47 255.095 46.7833 254.662 46.35C254.229 45.9167 254.012 45.3833 254.012 44.75V43.75ZM245.362 25.2C244.162 25.2 243.029 25.4333 241.962 25.9C240.929 26.3333 240.012 26.95 239.212 27.75C238.445 28.5167 237.829 29.4333 237.362 30.5C236.929 31.5333 236.712 32.65 236.712 33.85C236.712 35.05 236.929 36.1833 237.362 37.25C237.829 38.2833 238.445 39.2 239.212 40C240.012 40.7667 240.929 41.3833 241.962 41.85C243.029 42.2833 244.162 42.5 245.362 42.5C246.562 42.5 247.679 42.2833 248.712 41.85C249.779 41.3833 250.695 40.7667 251.462 40C252.262 39.2 252.879 38.2833 253.312 37.25C253.779 36.1833 254.012 35.05 254.012 33.85C254.012 32.65 253.779 31.5333 253.312 30.5C252.879 29.4333 252.262 28.5167 251.462 27.75C250.695 26.95 249.779 26.3333 248.712 25.9C247.679 25.4333 246.562 25.2 245.362 25.2Z" fill="#CD5390"/>
</svg>
